# xmcd
#
# Track frame offsets: 
#        150
#        18087
#        32065
#        47998
#        72708
#        89561
#        110542
#        128410
#        142550
#        158881
#        173163
#        185537
#
# Disc length: 2645 seconds
#
# Revision: 0
# Processed by: cddbd v1.5.2PL0 Copyright (c) Steve Scherf et al.
# Submitted via: ExactAudioCopy v0.95b2
#
DISCID=9c0a530c
DTITLE=Chris Stuart - The Bluegrass Tribute to Jack Johnson
DYEAR=2008
DGENRE=Country
TTITLE0=Better Together
TTITLE1=Sitting, Waiting, Wishing
TTITLE2=Upside Down
TTITLE3=It's All Understood
TTITLE4=Taylor
TTITLE5=Flake
TTITLE6=Breakdown
TTITLE7=Cocoon
TTITLE8=Mudfootball
TTITLE9=Drink The Water
TTITLE10=Holes to Heaven
TTITLE11=Banana Pancakes
EXTD=
EXTT0=
EXTT1=
EXTT2=
EXTT3=
EXTT4=
EXTT5=
EXTT6=
EXTT7=
EXTT8=
EXTT9=
EXTT10=
EXTT11=
PLAYORDER=
